<svg width="18  " height="18" viewBox="0 0 13 16" fill="none" xmlns="http://www.w3.org/2000/svg">
<path d="M1.49914 7.11505C1.43212 6.24386 2.12095 5.5 2.99471 5.5H10.255C11.1289 5.5 11.8177 6.24385 11.7507 7.11505L11.2314 13.865C11.1713 14.6465 10.5196 15.25 9.73582 15.25H3.51394C2.73014 15.25 2.07848 14.6465 2.01836 13.865L1.49914 7.11505Z" stroke="#FF0000"/>
<path d="M12.25 3.25H1" stroke="#FF0000" stroke-linecap="round"/>
<path d="M5.125 1.75C5.125 1.33579 5.46077 1 5.875 1H7.375C7.78922 1 8.125 1.33579 8.125 1.75V3.25H5.125V1.75Z" stroke="#FF0000"/>
<path d="M8.125 8.5V12.25" stroke="#FF0000" stroke-linecap="round"/>
<path d="M5.125 8.5V12.25" stroke="#FF0000" stroke-linecap="round"/>
</svg>
